0
SECTION
2
HEADER
9
$ACADVER
1
AC1021
0
ENDSEC
0
SECTION
2
ENTITIES
0
LINE
8
APERTURE_ANNOTATIONS
420
7527621
10
0
20
0
11
200
21
0
0
LWPOLYLINE
8
APERTURE_ANNOTATIONS
420
9677765
90
4
70
1
10
0
20
10
42
0
10
200
20
10
42
0
10
200
20
130
42
0
10
0
20
130
42
0
0
ELLIPSE
8
APERTURE_ANNOTATIONS
420
15053689
10
60
20
65
11
30
21
0
40
1
41
0
42
6.283185307179586
0
ELLIPSE
8
APERTURE_ANNOTATIONS
420
11049175
10
145
20
65
11
35
21
12
40
0.5
41
0
42
5.026548245743669
0
MTEXT
8
APERTURE_ANNOTATIONS
420
12113118
10
5
20
147
40
12
71
7
50
0
1
Aperture CAD / Compute\PDXF feature sample
0
SOLID
8
APERTURE_ANNOTATIONS
420
14263410
10
20
20
30
11
35
21
30
12
27.5
22
45
13
27.5
23
45
0
POINT
8
APERTURE_ANNOTATIONS
420
16756828
10
100
20
65
0
LWPOLYLINE
8
APERTURE_ANNOTATIONS
420
14526558
90
44
70
1
10
20
20
25
42
0.45
10
31.42857142857143
20
25
42
0.45
10
42.85714285714286
20
25
42
0.45
10
54.285714285714285
20
25
42
0.45
10
65.71428571428572
20
25
42
0.45
10
77.14285714285714
20
25
42
0.45
10
88.57142857142857
20
25
42
0.45
10
100
20
25
42
0.45
10
111.42857142857143
20
25
42
0.45
10
122.85714285714286
20
25
42
0.45
10
134.28571428571428
20
25
42
0.45
10
145.71428571428572
20
25
42
0.45
10
157.14285714285714
20
25
42
0.45
10
168.57142857142858
20
25
42
0.45
10
180
20
25
42
0.45
10
180
20
35.625
42
0.45
10
180
20
46.25
42
0.45
10
180
20
56.875
42
0.45
10
180
20
67.5
42
0.45
10
180
20
78.125
42
0.45
10
180
20
88.75
42
0.45
10
180
20
99.375
42
0.45
10
180
20
110
42
0.45
10
168.57142857142858
20
110
42
0.45
10
157.14285714285717
20
110
42
0.45
10
145.71428571428572
20
110
42
0.45
10
134.28571428571428
20
110
42
0.45
10
122.85714285714285
20
110
42
0.45
10
111.42857142857142
20
110
42
0.45
10
100
20
110
42
0.45
10
88.57142857142858
20
110
42
0.45
10
77.14285714285714
20
110
42
0.45
10
65.71428571428571
20
110
42
0.45
10
54.28571428571429
20
110
42
0.45
10
42.85714285714286
20
110
42
0.45
10
31.428571428571423
20
110
42
0.45
10
20
20
110
42
0.45
10
20
20
99.375
42
0.45
10
20
20
88.75
42
0.45
10
20
20
78.125
42
0.45
10
20
20
67.5
42
0.45
10
20
20
56.875
42
0.45
10
20
20
46.25
42
0.45
10
20
20
35.625
42
0.45
0
ENDSEC
0
EOF
